<?xml version="1.0" encoding="UTF-8"?>
<svg id="Capa_1" data-name="Capa 1" xmlns="http://www.w3.org/2000/svg" viewBox="0 0 100 200">
  <defs>
    <style>
      .cls-1 {
        fill: #fff;
      }
    </style>
  </defs>
  <path class="cls-1" d="M50.27,32.57l.09.45-1.89,5.8c-.18.45.36.76.58.45l5.67-7.25-.09-.58-3.11-2.61-.09-.45,1.89-5.8-.54-.36-5.71,7.15.09.58,3.11,2.6v.02Z"/>
  <polygon class="cls-1" points="57.43 40.94 57.75 41.62 66.29 38.29 66.51 37.7 65.12 33.93 65.25 33.52 69.79 29.48 69.48 28.8 60.98 32.13 60.76 32.67 62.14 36.49 61.97 36.89 57.43 40.94"/>
  <path class="cls-1" d="M34.36,37.57l3.86-1.13.4.18,3.73,4.81c.27.4.85.13.72-.27l-2.75-8.72-.54-.27-3.86,1.13-.4-.18-3.73-4.81-.68.27,2.75,8.72.49.27h.01Z"/>
  <path class="cls-1" d="M79.47,73.88c-.04-.41-.22-.79-.5-1.08s-.67-.47-1.08-.5c-1.15-.1-3.75-.27-6.85.06-4.15.44-9.28,1.74-12.94,5.39-4.81,4.75-5.48,9.37-4.75,12.64.44,2.09,1.38,3.62,2.06,4.48l-4.28,4.28v-26.73c5.03-.4,8.99-4.54,8.99-9.72v-8.27l-.32-.81-.81-.32h-3.24v-7.74c0-.63-.49-1.13-1.13-1.13s-1.13.49-1.13,1.13v7.74h-5.94v-7.74c0-.63-.49-1.13-1.13-1.13s-1.13.49-1.13,1.13v7.74h-3.64l-.81.32-.32.81v8.27c0,4.9,3.6,8.91,8.27,9.63v26.8l-4.2-4.22c.74-.91,1.82-2.59,2.27-4.92.58-3.24-.27-7.58-4.98-12.23-3.68-3.68-8.78-4.95-12.94-5.39-3.1-.33-5.7-.16-6.85-.06-.41.04-.79.22-1.08.5-.29.29-.47.67-.5,1.08-.1,1.15-.27,3.75.06,6.85.44,4.15,1.74,9.28,5.39,12.94,4.75,4.81,9.37,5.48,12.64,4.75,2.09-.44,3.63-1.38,4.48-2.06l6.13,6.13c.21.21.48.31.76.3.27,0,.54-.09.75-.3l6.1-6.1c.91.74,2.59,1.82,4.92,2.27,3.24.58,7.58-.27,12.23-4.98,3.68-3.68,4.95-8.78,5.39-12.94.33-3.1.16-5.7.06-6.85h.01ZM41.25,91.51v-6.9c0-.59-.47-1.06-1.04-1.04-.59,0-1.06.47-1.03,1.03v4.78l-4.24-4.24v-6.9c0-.59-.47-1.06-1.04-1.03-.59,0-1.06.47-1.04,1.04v4.78l-2.97-2.97c-.41-.41-1.06-.41-1.48,0s-.41,1.06,0,1.48l5.66,5.66-4.86.09c-.59,0-1.06.47-1.03,1.03,0,.59.47,1.06,1.04,1.04h6.9l5.52,5.52c-.83.58-2.18,1.35-3.95,1.59-2.59.41-6.07-.11-10.19-4.24h0c-3.13-3.13-4.42-7.78-4.81-11.7-.21-1.98-.17-3.71-.14-4.98.03-.5.03-.85.06-1.18,2.8-.27,12.58-.5,17.86,4.89,4.31,4.36,4.83,7.83,4.39,10.4-.33,1.73-1.09,3.03-1.68,3.8l-1.91-1.91h-.03ZM42.92,62.7v-7.15h15.06v7.15c0,4.13-3.37,7.5-7.5,7.5s-7.56-3.37-7.56-7.5ZM72.55,92.19c-4.36,4.31-7.83,4.83-10.4,4.39-1.73-.33-3.03-1.09-3.8-1.68l1.91-1.91h6.9c.59,0,1.06-.47,1.04-1.04,0-.59-.47-1.06-1.03-1.03h-4.78l4.24-4.24h6.9c.59,0,1.06-.47,1.03-1.04,0-.59-.47-1.06-1.04-1.04h-4.78l2.97-2.97c.41-.41.41-1.06,0-1.48s-1.06-.41-1.48,0l-5.66,5.66-.09-4.86c0-.59-.47-1.06-1.03-1.03-.59,0-1.06.47-1.04,1.04v6.9l-5.52,5.52c-.58-.83-1.35-2.18-1.59-3.95-.41-2.59.11-6.07,4.24-10.19h0c3.13-3.13,7.78-4.42,11.7-4.81,1.98-.21,3.71-.17,4.98-.14.5.03.85.03,1.18.06.27,2.8.5,12.58-4.89,17.86v-.03Z"/>
</svg>