<?xml version="1.0" encoding="UTF-8"?>
<svg id="Capa_1" data-name="Capa 1" xmlns="http://www.w3.org/2000/svg" viewBox="0 0 100 200">
  <defs>
    <style>
      .cls-1 {
        fill: #fff;
      }
    </style>
  </defs>
  <path class="cls-1" d="M61.85,47.48c.35-.19.65-.42.95-.66.02.02.05.04.07.06.88.68,2.01,1.18,3.29,1.18.51,0,.93-.42.93-.93s-.42-.93-.93-.93c-.79,0-1.51-.3-2.12-.77.03-.04.06-.07.07-.11.53-.86.85-1.78.86-2.68,0-.55-.13-1.13-.53-1.62-.2-.23-.47-.43-.76-.55-.3-.12-.62-.18-.94-.18s-.63.06-.92.17c-.44.18-.8.51-1.01.91s-.28.8-.28,1.21c0,.61.16,1.21.42,1.82.16.35.36.71.61,1.05-.56.46-1.2.73-1.89.73-.45,0-.87-.12-1.27-.34-.14-.07-.27-.16-.4-.26.26-.35.49-.71.65-1.08.27-.6.42-1.2.42-1.81s-.15-1.19-.57-1.66c-.42-.49-1.08-.75-1.76-.74-.34,0-.66.06-.97.18-.46.19-.83.54-1.04.94-.21.4-.29.84-.29,1.26,0,.6.15,1.2.39,1.78.15.35.35.7.57,1.04-.62.4-1.35.67-2.24.67-.51,0-.93.42-.93.93s.42.93.93.93c1.38,0,2.57-.46,3.5-1.13.8.65,1.83,1.13,3,1.13.8,0,1.55-.21,2.2-.57l-.02.04ZM62.46,42.22l.05-.03s.1-.03.22-.03c.13,0,.2.02.23.04l.07.07s.07.18.07.36c0,.27-.07.66-.25,1.07-.02.06-.06.11-.08.16-.04-.07-.08-.15-.12-.22-.19-.41-.27-.8-.26-1.06,0-.24.07-.35.07-.36h0ZM56.41,42.24l.07-.05s.12-.04.25-.04c.28,0,.31.07.35.1.04.04.11.17.11.44s-.07.64-.26,1.04c-.06.12-.12.25-.2.37-.28-.53-.43-1.07-.43-1.43,0-.27.07-.4.1-.43h0Z"/>
  <path class="cls-1" d="M44.15,102.79c9.08,0,16.43-7.36,16.43-16.43v-21.35c.62-.25,1.1-.74,1.35-1.35h.21c1.23,0,2.22-1,2.22-2.22v-5.46c0-.41.23-.78.63-.97,4.05-1.98,6.85-6.13,6.85-10.95,0-6.73-5.46-12.19-12.19-12.19-.17,0-.34,0-.5,0-3,.12-5.82,1.53-7.94,3.61-2.12,2.09-3.57,4.88-3.73,7.88,0,.23-.02.47-.02.69,0,4.82,2.8,8.97,6.85,10.95.39.2.63.57.63.97v5.46c0,1.23,1,2.22,2.22,2.22h.21c.25.62.74,1.1,1.35,1.35v21.35c0,4.02-1.62,7.67-4.27,10.3-2.64,2.63-6.27,4.27-10.3,4.27s-7.67-1.62-10.3-4.27-4.27-6.27-4.27-10.3v-1s0-.04,0-.07v-7.8c1.06-.11,2.83-.49,4.59-1.7,2.45-1.7,4.67-5.01,4.63-11,0-4.71-2.45-8.78-4.82-11.72-1.76-2.19-3.54-3.75-4.34-4.43-.29-.23-.64-.36-1.01-.36s-.73.13-1.01.36c-.8.67-2.57,2.23-4.34,4.43-2.37,2.94-4.82,7.05-4.82,11.72-.04,6.11,2.48,9.5,5.05,11.11,1.62,1.06,3.2,1.43,4.18,1.54v7.83s0,.05,0,.07v1c0,9.08,7.36,16.43,16.43,16.43h-.03ZM56.8,57.88h5.71v.93h-5.71v-.93ZM55.12,53.3c-3.44-1.68-5.8-5.19-5.8-9.27,0-.2,0-.39.02-.59.13-2.45,1.35-4.85,3.18-6.65s4.26-2.99,6.7-3.08h.43c2.86,0,5.43,1.16,7.3,3.03,1.87,1.88,3.03,4.44,3.03,7.3,0,4.08-2.37,7.59-5.81,9.27-1.01.49-1.67,1.5-1.67,2.65v.06h-5.71v-.06c0-1.15-.67-2.17-1.67-2.65h0ZM56.8,61.42v-.75h5.71v.75c0,.2-.16.35-.35.35h-5c-.2,0-.35-.16-.35-.35ZM27.71,75.52c-.91-.15-2.26-.52-3.54-1.51-1.92-1.39-3.81-3.96-3.81-9.23h0c0-4,2.15-7.8,4.41-10.55,1.13-1.39,2.26-2.48,3.09-3.28.34-.3.57-.52.79-.72,1.96,1.62,8.37,7.72,8.29,14.54-.04,5.54-1.92,8.1-3.85,9.46-1.32.91-2.64,1.24-3.5,1.35v-2.45l4.41-4.41c.37-.37.37-.98,0-1.32-.37-.37-.98-.37-1.32,0l-3.05,3.05v-5.43l4.41-4.41c.37-.37.37-.98,0-1.32-.37-.37-.98-.37-1.32,0l-3.05,3.05v-3.81c0-.52-.41-.94-.94-.94s-.94.41-.94.94v7.24l-3.17-3.05c-.37-.37-.98-.37-1.32,0-.37.37-.37.98,0,1.32l4.41,4.41s0,7.05,0,7.05Z"/>
  <path class="cls-1" d="M59.65,29.47h0c.51,0,.93-.42.93-.93v-5.4c0-.51-.41-.93-.92-.93h0c-.51,0-.93.42-.93.93v5.4c0,.51.41.93.92.93h0Z"/>
  <path class="cls-1" d="M48.02,33.75c.36.36.95.36,1.32,0s.36-.95,0-1.32l-3.81-3.83c-.36-.36-.95-.36-1.32,0s-.36.95,0,1.32c0,0,3.81,3.83,3.81,3.83Z"/>
  <path class="cls-1" d="M37.81,44.05c0,.51.42.93.93.93h5.4c.51,0,.93-.41.93-.92s-.42-.93-.93-.93h-5.4c-.51,0-.93.41-.93.92Z"/>
  <path class="cls-1" d="M80.57,43.12h-5.4c-.51,0-.93.41-.93.92s.42.93.93.93h5.4c.51,0,.93-.41.93-.92s-.42-.93-.93-.93Z"/>
  <path class="cls-1" d="M69.96,33.74c.36.36.95.36,1.32,0l3.83-3.81c.36-.36.36-.95,0-1.32-.36-.36-.95-.36-1.32,0l-3.83,3.81c-.36.36-.36.95,0,1.32Z"/>
</svg>