<?xml version="1.0" encoding="UTF-8"?>
<svg id="Capa_1" data-name="Capa 1" xmlns="http://www.w3.org/2000/svg" viewBox="0 0 100 200">
  <defs>
    <style>
      .cls-1 {
        fill: #fff;
      }
    </style>
  </defs>
  <path class="cls-1" d="M31.69,93.22c0-.5-.39-.89-.89-.89h-10.22c-2.93,0-5.43-1.18-7.18-3.04-1.79-1.86-2.82-4.36-2.82-6.97,0-1.71.46-3.5,1.46-5.18l7.93-12.79c.82.36,2.18.82,3.89.82,2.86.04,6.57-1.36,9.64-6.29h0c1.71-2.71,2.21-5.86,2.21-8.68,0-4.97-1.57-9.18-1.57-9.22-.14-.36-.5-.61-.89-.57-.04,0-2.82.25-6.18,1.39-3.39,1.14-7.36,3.18-9.72,6.89-1.82,2.89-2.54,5.39-2.54,7.54,0,2.61,1.07,4.57,2.11,5.82.54.64,1.07,1.11,1.46,1.43l-7.89,12.72h0c-1.18,1.96-1.75,4.04-1.71,6.11,0,6.14,4.89,11.79,11.79,11.79h10.25c.46,0,.86-.39.86-.89ZM16.62,56.25c0-1.71.57-3.89,2.25-6.57,2-3.18,5.61-5.07,8.79-6.14,1.57-.54,3.04-.86,4.07-1.07.43-.07.71-.11,1-.14h0c.39,1.32,1.25,4.47,1.25,7.89,0,2.64-.5,5.43-1.96,7.75h0c-2.86,4.5-5.82,5.43-8.14,5.43-1.14,0-2.11-.25-2.82-.5l-.14-.07,3.5-5.64,5.61-1.25c.46-.11.79-.57.68-1.07-.11-.46-.57-.79-1.07-.68l-3.86.89,1.25-2.04v-.07l2.29-3.64c.25-.43.14-.96-.29-1.21-.39-.29-.93-.14-1.21.29l-1.89,3-.89-3.93c-.11-.46-.57-.79-1.07-.68-.46.11-.79.57-.68,1.07l1.29,5.68-1.54,2.39h0l-1.18,1.89-.89-3.93c-.11-.46-.57-.79-1.07-.68-.46.11-.79.57-.68,1.07l1.29,5.68-1.21,1.93c-.32-.29-.75-.68-1.14-1.18-.75-1.04-1.5-2.5-1.5-4.47Z"/>
  <path class="cls-1" d="M87.42,72.86c-.25-.43-.82-.57-1.21-.29s-.57.82-.29,1.21h0l2.04,3.36c1,1.68,1.46,3.43,1.46,5.18,0,2.61-1.04,5.11-2.82,6.97s-4.25,3.04-7.18,3.04h-13.04c-.11-1-.46-2.64-1.61-4.32-1.57-2.29-4.72-4.39-10.32-4.36-4.39,0-8.25,2.32-11,4.54-2.75,2.25-4.47,4.47-4.47,4.5v1.07s1.71,2.25,4.47,4.5c2.75,2.21,6.61,4.54,11,4.54,5.75.04,8.89-2.32,10.43-4.75.96-1.54,1.32-3,1.46-3.93h13.07c6.89,0,11.79-5.64,11.79-11.79,0-2.04-.54-4.14-1.71-6.11l-2.07-3.36ZM63.09,97.44c-1.32,1.79-3.72,3.54-8.68,3.57-3.75,0-7.29-2.04-9.89-4.14-1.29-1.04-2.36-2.11-3.07-2.89-.29-.32-.46-.54-.64-.75,1.54-1.86,7.25-7.82,13.61-7.79,5.18.04,7.57,1.79,8.86,3.61.86,1.21,1.14,2.46,1.25,3.29h-2.25l-4.11-4.11c-.36-.36-.93-.36-1.25,0-.36.36-.36.93,0,1.25l2.86,2.86h-5.07l-4.11-4.11c-.36-.36-.93-.36-1.25,0-.36.36-.36.93,0,1.25l2.86,2.86h-3.57c-.5,0-.89.39-.89.89s.39.89.89.89h6.79l-2.86,2.86c-.36.36-.36.93,0,1.25.36.36.93.36,1.25,0l4.11-4.11h6.61c-.18.82-.54,2.11-1.43,3.32Z"/>
  <path class="cls-1" d="M66.81,45.82c-1.04,1.25-2.11,3.21-2.11,5.82,0,2.11.68,4.64,2.54,7.54,2.36,3.72,6.36,5.75,9.72,6.89,3.36,1.14,6.14,1.39,6.18,1.39.39.04.79-.21.93-.57,0-.07,1.57-4.25,1.61-9.22,0-2.86-.54-5.97-2.21-8.68-3.07-4.89-6.79-6.29-9.64-6.29-1.82,0-3.18.5-4,.86l-9.68-15.68h0c-2.36-3.79-6.29-5.68-10.14-5.68s-7.79,1.89-10.07,5.64l-4.18,6.89c-.25.43-.14,1,.29,1.25.43.25.96.11,1.21-.29l4.22-6.89c1.96-3.25,5.22-4.82,8.54-4.82s6.57,1.61,8.54,4.79h0l9.68,15.65c-.39.32-.89.79-1.39,1.39ZM69.13,46l1.21,1.93-1.29,5.64c-.11.46.18.96.68,1.07.46.11.96-.18,1.07-.68l.89-3.89s.04.04.07.04l1.14,1.79h0l1.54,2.39-1.29,5.68c-.11.46.18.96.68,1.07.46.11.96-.18,1.07-.68l.89-3.93,1.89,3.04c.25.43.82.54,1.21.29s.54-.82.29-1.21l-3.07-4.86h0l-.57-.89,3.93.89c.46.11.96-.18,1.07-.68.11-.46-.18-.96-.68-1.07l-5.68-1.29-3.54-5.57c.68-.29,1.75-.61,3.04-.61,2.32.04,5.29.96,8.14,5.43,1.46,2.32,1.96,5.11,1.96,7.75,0,2.29-.36,4.47-.75,6.04-.18.79-.36,1.43-.5,1.89h0c-1.14-.14-3.61-.61-6.29-1.64-2.86-1.11-5.82-2.93-7.57-5.72-1.68-2.68-2.25-4.86-2.25-6.57,0-2.14.86-3.64,1.68-4.68.39-.43.71-.71,1-.96Z"/>
</svg>