<?xml version="1.0" encoding="UTF-8"?>
<svg id="Capa_1" data-name="Capa 1" xmlns="http://www.w3.org/2000/svg" viewBox="0 0 100 200">
  <defs>
    <style>
      .cls-1 {
        fill: #fff;
      }
    </style>
  </defs>
  <path class="cls-1" d="M39.72,93.64l-2.01,6.44c-.06.21-.1.42-.1.64,0,.61.28,1.15.66,1.5s.88.55,1.42.56c.57,0,1.21-.28,1.61-.8l5.33-6.81c.88.1,1.77.17,2.67.19.34,0,.67.01,1,.01,17.96,0,32.79-14.3,33.32-32.37.02-.58-.45-1.07-1.03-1.09s-1.07.45-1.09,1.03c-.5,16.92-14.38,30.31-31.2,30.31-.31,0-.63,0-.93-.01-.39-.01-.79-.04-1.17-.06l19.72-25.21c.34-.42.3-1.04-.1-1.42l-13.73-13.27,5.51-19.94c7.61,2.53,13.9,7.9,17.65,14.86l-5.17-1.32c-.57-.15-1.15.2-1.3.76-.15.57.2,1.15.76,1.3l7.74,1.98c.28.07.56.03.81-.12.24-.14.41-.38.49-.65l1.98-7.74c.15-.57-.2-1.15-.76-1.3-.57-.15-1.15.2-1.3.76l-1.37,5.36c-4.02-7.49-10.79-13.26-18.98-15.94l1.42-5.16h0c.13-.35.19-.71.19-1.05,0-.83-.35-1.56-.87-2.06-.52-.5-1.2-.81-1.94-.81-.74-.01-1.54.36-2.05,1.04h0l-4.97,6.44s-.03-.01-.05-.01c-.71-.04-1.43-.06-2.16-.06-18.42,0-33.35,14.94-33.35,33.35,0,.58.48,1.06,1.06,1.06s1.06-.48,1.06-1.06c0-8.63,3.49-16.43,9.15-22.08s13.46-9.15,22.08-9.15c.2,0,.41.01.62.02l-18.25,23.66c-.32.41-.29.99.06,1.37l14.27,15.36-6.07,19.47c-8.13-2.73-14.73-8.68-18.32-16.32h0l5.02,1.44c.56.16,1.15-.16,1.32-.73s-.16-1.15-.73-1.32l-7.69-2.21c-.27-.07-.56-.04-.81.1s-.42.37-.51.64l-2.21,7.69c-.16.56.16,1.15.73,1.32s1.15-.16,1.32-.73l1.58-5.51c.02.07.02.16.05.23,3.85,8.17,10.92,14.53,19.62,17.43h-.01ZM48.39,71.16l-14.06-15.16,24.26-31.45h.01c.15-.2.22-.2.36-.22.13,0,.33.06.47.21.14.14.22.31.22.53,0,.11-.02.23-.07.38l-.03.11-7.68,27.76c-.11.37,0,.78.29,1.05l13.5,13.04-25.82,33.01,8.81-28.22c.12-.36.02-.76-.23-1.04h-.01ZM20.37,74.82l.15.04c-.07.04-.14.08-.2.15,0,0,.05-.19.05-.19Z"/>
</svg>