<svg xmlns="http://www.w3.org/2000/svg" data-name="Fill line" viewBox="0 0 100 225" x="0px" y="0px" fill="#FFFFFF"><defs><style>
      .cls-1 {
        strokeWidth: 0px;
      }
    </style></defs><path class="cls-1" d="M78.33,58.3v-.12c-1.91-13.62-13.31-24.16-27.33-24.64v-8.16c1.05.47,2.62.97,4.56.98,1.92,0,4.18-.52,6.49-2.04,2.83-1.88,4.59-4.96,5.7-7.55,1.11-2.59,1.55-4.73,1.55-4.77.11-.51-.2-1.02-.7-1.16-.06-.02-2.28-.66-5.32-.66-2.66,0-5.98.49-8.94,2.44l.55.84-.55-.84c-2.23,1.47-3.58,3.25-4.35,4.96-.77-1.71-2.12-3.49-4.35-4.96l-.55.84.55-.84c-2.96-1.95-6.27-2.44-8.94-2.44-3.03,0-5.26.64-5.32.66-.5.14-.81.65-.7,1.16,0,.04.45,2.17,1.55,4.77,1.11,2.59,2.87,5.67,5.7,7.55,2.31,1.53,4.57,2.05,6.49,2.04,1.94,0,3.51-.51,4.56-.98v8.17c-4.35.15-8.45,1.29-12.09,3.15-6.52,3.34-11.54,9.13-13.94,16.14v.04c-1.06,2.93-1.59,6.03-1.59,9.25,0,7.5,2.89,14.31,7.62,19.4l.08.08c5.22,5.58,12.64,9.13,20.91,9.13,15.82,0,28.62-12.84,28.62-28.62,0-1.27-.12-2.53-.29-3.75v-.08ZM51,22.23c0-.96.15-2.32.77-3.74.63-1.42,1.71-2.92,3.68-4.21,2.5-1.65,5.41-2.11,7.84-2.11,1.37,0,2.58.15,3.44.29.14.02.26.05.39.07-.25.9-.69,2.33-1.4,3.89-1.03,2.3-2.62,4.81-4.76,6.21-2,1.31-3.82,1.71-5.39,1.71-1.27,0-2.35-.27-3.18-.58l8.63-6.46c.44-.33.53-.96.2-1.4s-.96-.53-1.4-.2l-8.81,6.59s0-.04,0-.07c0,0,0,0,0,0,0,0,0,0,0,0ZM38.36,17.35l9.51,6.33c-.86.34-2.05.68-3.44.67-1.57,0-3.4-.4-5.39-1.71-2.29-1.49-3.94-4.25-4.96-6.66-.51-1.2-.88-2.31-1.11-3.11-.03-.12-.06-.22-.09-.33.86-.17,2.22-.37,3.82-.37,2.42,0,5.34.46,7.84,2.11,1.96,1.3,3.05,2.79,3.68,4.21.58,1.32.75,2.58.76,3.52l-9.52-6.34c-.46-.31-1.08-.18-1.39.28s-.18,1.08.28,1.39ZM57.46,38.52v-.04s.24-.49.57-.9c.2-.24.45-.49.65-.65,3.87,1.35,7.34,3.5,10.19,6.32,3.22,3.39,5.63,7.55,6.85,12.2-.24-.08-.49-.12-.69-.16l-.53-.04c-1.02,0-1.88.32-2.61.53-.49.12-.98.24-1.35.24l-.69-.12c-.24-.08-.57-.32-.98-.57-.41-.24-.9-.53-1.59-.53l-.9.2c-.53.24-.94.73-1.06,1.22-.16.45-.16.86-.16,1.27v.86c0,.53-.08.81-.16.86h-.24c-.49.05-1.47-.41-2.61-.44-.45,0-.98.08-1.43.37-.81.53-1.14,1.43-1.14,2.16,0,.69.2,1.39.65,1.96.81,1.06,1.88,1.51,2.65,2l.53.45.08.24-.24.78c-.29.49-.86.98-1.43,1.67-1.39,1.71-1.83,3.75-2.24,5.58-.41,1.83-.81,3.55-1.79,4.77-.69.9-1.83,1.51-2.81,1.51l-.89-.12c-.69-.32-1.27-1.14-1.51-2.04-.08-.41-.16-.86-.16-1.3,0-.57.08-1.18.16-1.79.08-.37.16-.81.16-1.3,0-.53-.12-1.14-.53-1.71l-.08-.08-.69-.65-.04-.32c0-.24,0-.65-.12-1.14-.37-1.3-1.51-2-2.53-2.24-.57-.12-1.1-.16-1.63-.16h-1.06c-1.75,0-3.47-.53-4.57-1.59-.86-.86-1.39-2.16-1.39-3.47,0-.41.04-.81.16-1.22.41-1.67,1.71-3.1,3.34-3.83,1.06-.45,2.2-.61,3.47-.61,2.28,0,4.81.57,7.46.57.53,0,1.1-.04,1.67-.08.61-.08,1.3-.24,1.96-.57.65-.32,1.27-.9,1.55-1.71l.16-.9c-.04-1.35-.86-2.4-1.88-2.98-1.22-.65-2.49-.69-3.55-.73-1.18-.04-2.4-.08-3.59-.16-.69-.04-1.43-.08-1.96-.29-.45-.12-.69-.32-.86-.57l.2-.08c1.39-.57,2.08-1.67,2.73-2.57.65-.94,1.18-1.63,1.83-1.91.45-.2,1.27-.29,2.12-.45.45-.08.9-.2,1.35-.41.45-.2.9-.61,1.22-1.14.29-.49.37-1.02.37-1.47-.04-1.14-.41-2.04-.41-2.65ZM31.21,43.33h0c1.22-1.22,2.53-2.28,3.96-3.26-.21.78-.33,1.55-.33,2.24l.04.78c.08.65.12,1.27.12,1.88,0,.9-.16,1.63-.57,2.12-.29.36-.82.69-1.47,1.01-1.3.7-2.57,1.39-3.87,2.08-.9.49-2.28,1.06-3.59,1.55,1.35-3.14,3.3-5.99,5.71-8.4ZM30.76,79.21c-.24.2-.49.37-.73.49-4.12-4.69-6.65-10.8-6.65-17.53.04-1.1.13-2.2.25-3.22.2-.04.41-.08.61-.08,1.39,0,2.77.61,3.06,1.35.24.53.28,1.34.45,2.32.32,2.12,1.35,4.12,2.81,5.67,1.02,1.02,2,1.83,2.24,2.65l.12.78c0,.94-.49,2.16-.78,3.55-.2,1.14-.24,2.16-.49,2.94-.04.16-.41.69-.9,1.1ZM50,88.71c-3.46.04-6.8-.65-9.82-1.87,1.67-1.06,3.63-1.67,5.58-1.67.41,0,.81.04,1.22.08,2.37.29,4.61,1.51,6.24,3.26-1.06.12-2.12.2-3.22.2ZM68.79,80.97h0c-3.55,3.55-8.15,6.12-13.25,7.22-2-2.65-5.01-4.48-8.32-4.89-.49-.08-.98-.08-1.47-.08-2.77,0-5.55.98-7.71,2.73-2.45-1.22-4.65-2.81-6.6-4.69.2-.16.45-.29.61-.45.65-.57,1.22-1.22,1.51-2,.37-1.18.37-2.28.57-3.18.2-1.1.78-2.4.81-3.96,0-.45-.04-.94-.2-1.39-.61-1.75-1.91-2.61-2.73-3.5-1.18-1.22-2-2.86-2.28-4.57-.12-.78-.12-1.79-.61-2.86-.94-1.88-3.06-2.49-4.89-2.53l-.29.04c.16-.9.41-1.79.69-2.65,1.71-.53,3.96-1.47,5.42-2.24,1.27-.69,2.57-1.39,3.83-2.04.65-.37,1.47-.78,2.12-1.55.86-1.06,1.06-2.28,1.06-3.42,0-.73-.08-1.43-.16-2.08l-.04-.57c0-.73.12-1.63.37-2.4.21-.7.57-1.27.86-1.51,3.59-1.83,7.62-2.85,11.91-2.85,2.2,0,4.36.29,6.4.81l-.08.08c-.45.57-.9,1.1-.98,2.04v.12c.04,1.18.41,2.12.41,2.65l-.08.45-.37.33c-.29.12-.78.24-1.35.32-.61.08-1.3.16-2,.49-1.35.61-2.04,1.71-2.69,2.61-.61.94-1.18,1.63-1.79,1.83l-.73.32c-.29.16-.73.53-.9,1.1v.45l.08.57.08.29c.49.98,1.39,1.51,2.24,1.75.86.29,1.71.32,2.49.37,1.18.04,2.4.08,3.59.16,1.06.04,2,.12,2.65.49.49.24.86.86.81,1.18l-.04.2-.57.57c-.32.16-.81.29-1.27.37-.45.04-.94.08-1.43.08-2.32,0-4.89-.57-7.46-.57-1.43,0-2.86.2-4.28.78-2.12.94-3.87,2.85-4.48,5.18-.12.57-.2,1.14-.2,1.71,0,1.83.69,3.63,2.04,4.93,1.63,1.59,3.87,2.16,5.95,2.16h1.06c.45,0,.81.04,1.14.08.57.12.98.49,1.02.78l.04.73c.04.37.04.86.37,1.39l.12.16.73.73.08.41-.12.94c-.12.69-.2,1.43-.2,2.16,0,.57.04,1.18.2,1.75.32,1.39,1.18,2.73,2.61,3.42.57.29,1.18.41,1.75.37,1.75,0,3.34-.98,4.4-2.28,1.35-1.71,1.75-3.79,2.16-5.58.41-1.83.86-3.55,1.83-4.77.41-.53,1.06-1.06,1.59-1.91.32-.53.53-1.14.53-1.83,0-.49-.12-1.02-.45-1.51l-.16-.2-.65-.54-.12-.08c-.94-.57-1.75-.98-2.12-1.51l-.24-.78.16-.45.37-.08c.53-.04,1.47.41,2.61.45.53,0,1.27-.16,1.75-.69.69-.73.73-1.63.73-2.24v-.86l.04-.57v-.04l.53.24c.32.2.69.49,1.22.69.49.2,1.02.29,1.51.29.69,0,1.35-.16,1.91-.29.81-.24,1.51-.45,2.04-.45h.29l1.02.37c.24.16.41.41.53.86.16,1.18.29,2.4.29,3.63-.05,7.34-3.03,13.98-7.84,18.8Z"/>
    </svg>