<svg xmlns="http://www.w3.org/2000/svg" version="1.1" x="0px" y="0px" viewBox="0 0 25 50" fill="#FFFFFF" ><style type="text/css">
	.st0{display:none;}
</style><g><path d="M6.88,20.58c0-0.14-0.11-0.25-0.25-0.25H3.77c-0.82,0-1.52-0.33-2.01-0.85c-0.5-0.52-0.79-1.22-0.79-1.95   c0-0.48,0.13-0.98,0.41-1.45L3.6,12.5c0.23,0.1,0.61,0.23,1.09,0.23c0.8,0.01,1.84-0.38,2.7-1.76l0,0   c0.48-0.76,0.62-1.64,0.62-2.43c0-1.39-0.44-2.57-0.44-2.58C7.53,5.86,7.43,5.79,7.32,5.8c-0.01,0-0.79,0.07-1.73,0.39   C4.64,6.51,3.53,7.08,2.87,8.12c-0.51,0.81-0.71,1.51-0.71,2.11c0,0.73,0.3,1.28,0.59,1.63c0.15,0.18,0.3,0.31,0.41,0.4l-2.21,3.56   l0,0c-0.33,0.55-0.49,1.13-0.48,1.71c0,1.72,1.37,3.3,3.3,3.3h2.87C6.77,20.83,6.88,20.72,6.88,20.58z M2.66,10.23   c0-0.48,0.16-1.09,0.63-1.84c0.56-0.89,1.57-1.42,2.46-1.72c0.44-0.15,0.85-0.24,1.14-0.3c0.12-0.02,0.2-0.03,0.28-0.04   c0,0,0,0,0,0C7.28,6.7,7.52,7.58,7.52,8.54c0,0.74-0.14,1.52-0.55,2.17l0,0c-0.8,1.26-1.63,1.52-2.28,1.52   c-0.32,0-0.59-0.07-0.79-0.14c-0.02-0.01-0.02-0.01-0.04-0.02l0.98-1.58l1.57-0.35c0.13-0.03,0.22-0.16,0.19-0.3   C6.57,9.71,6.44,9.62,6.3,9.65L5.22,9.9l0.35-0.57c0-0.01,0-0.01,0-0.02l0.64-1.02c0.07-0.12,0.04-0.27-0.08-0.34   C6.02,7.87,5.87,7.91,5.79,8.03L5.26,8.87l-0.25-1.1c-0.03-0.13-0.16-0.22-0.3-0.19c-0.13,0.03-0.22,0.16-0.19,0.3l0.36,1.59   l-0.43,0.67c0,0,0,0,0,0l-0.33,0.53l-0.25-1.1c-0.03-0.13-0.16-0.22-0.3-0.19c-0.13,0.03-0.22,0.16-0.19,0.3l0.36,1.59L3.4,11.81   c-0.09-0.08-0.21-0.19-0.32-0.33C2.87,11.19,2.66,10.78,2.66,10.23z"/><path d="M22.48,14.88c-0.07-0.12-0.23-0.16-0.34-0.08s-0.16,0.23-0.08,0.34v0l0.57,0.94c0.28,0.47,0.41,0.96,0.41,1.45   c0,0.73-0.29,1.43-0.79,1.95c-0.5,0.52-1.19,0.85-2.01,0.85h-3.65c-0.03-0.28-0.13-0.74-0.45-1.21c-0.44-0.64-1.32-1.23-2.89-1.22   c-1.23,0-2.31,0.65-3.08,1.27c-0.77,0.63-1.25,1.25-1.25,1.26v0.3c0.01,0.01,0.48,0.63,1.25,1.26c0.77,0.62,1.85,1.27,3.08,1.27   c1.61,0.01,2.49-0.65,2.92-1.33c0.27-0.43,0.37-0.84,0.41-1.1h3.66c1.93,0,3.3-1.58,3.3-3.3c0-0.57-0.15-1.16-0.48-1.71   L22.48,14.88z M15.67,21.76c-0.37,0.5-1.04,0.99-2.43,1c-1.05,0-2.04-0.57-2.77-1.16c-0.36-0.29-0.66-0.59-0.86-0.81   c-0.08-0.09-0.13-0.15-0.18-0.21c0.43-0.52,2.03-2.19,3.81-2.18c1.45,0.01,2.12,0.5,2.48,1.01c0.24,0.34,0.32,0.69,0.35,0.92h-0.63   l-1.15-1.15c-0.1-0.1-0.26-0.1-0.35,0c-0.1,0.1-0.1,0.26,0,0.35l0.8,0.8h-0.98h-0.44l-1.15-1.15c-0.1-0.1-0.26-0.1-0.35,0   c-0.1,0.1-0.1,0.26,0,0.35l0.8,0.8h-1c-0.14,0-0.25,0.11-0.25,0.25s0.11,0.25,0.25,0.25h1.9l-0.8,0.8c-0.1,0.1-0.1,0.26,0,0.35   c0.1,0.1,0.26,0.1,0.35,0l1.15-1.15h1.85C16.02,21.06,15.92,21.42,15.67,21.76z"/>
<path d="M16.71,7.31c-0.29,0.35-0.59,0.9-0.59,1.63c0,0.59,0.19,1.3,0.71,2.11c0.66,1.04,1.78,1.61,2.72,1.93   c0.94,0.32,1.72,0.39,1.73,0.39c0.11,0.01,0.22-0.06,0.26-0.16c0-0.02,0.44-1.19,0.45-2.58c0-0.8-0.15-1.67-0.62-2.43   c-0.86-1.37-1.9-1.76-2.7-1.76c-0.51,0-0.89,0.14-1.12,0.24l-2.71-4.39l0,0C14.18,1.23,13.08,0.7,12,0.7   c-1.08,0-2.18,0.53-2.82,1.58L8.01,4.21C7.94,4.33,7.97,4.49,8.09,4.56c0.12,0.07,0.27,0.03,0.34-0.08l1.18-1.93   C10.16,1.64,11.07,1.2,12,1.2c0.93,0,1.84,0.45,2.39,1.34l0,0l2.71,4.38C16.99,7.01,16.85,7.14,16.71,7.31z M17.36,7.36L17.7,7.9   l-0.36,1.58c-0.03,0.13,0.05,0.27,0.19,0.3c0.13,0.03,0.27-0.05,0.3-0.19l0.25-1.09c0.01,0.01,0.01,0.01,0.02,0.01l0.32,0.5   c0,0,0,0,0,0l0.43,0.67l-0.36,1.59c-0.03,0.13,0.05,0.27,0.19,0.3c0.13,0.03,0.27-0.05,0.3-0.19l0.25-1.1l0.53,0.85   c0.07,0.12,0.23,0.15,0.34,0.08s0.15-0.23,0.08-0.34l-0.86-1.36c0,0,0,0,0,0l-0.16-0.25l1.1,0.25c0.13,0.03,0.27-0.05,0.3-0.19   c0.03-0.13-0.05-0.27-0.19-0.3l-1.59-0.36L17.79,7.1c0.19-0.08,0.49-0.17,0.85-0.17c0.65,0.01,1.48,0.27,2.28,1.52   c0.41,0.65,0.55,1.43,0.55,2.17c0,0.64-0.1,1.25-0.21,1.69c-0.05,0.22-0.1,0.4-0.14,0.53c0,0,0,0,0,0   c-0.32-0.04-1.01-0.17-1.76-0.46c-0.8-0.31-1.63-0.82-2.12-1.6c-0.47-0.75-0.63-1.36-0.63-1.84c0-0.6,0.24-1.02,0.47-1.31   C17.19,7.51,17.28,7.43,17.36,7.36z"/></g>
</svg>