<?xml version="1.0" encoding="UTF-8"?>
<svg xmlns="http://www.w3.org/2000/svg" viewBox="0 0 6553.6 8192" width="100" height="100">
  <path fill="#ffffff" d="M4493.01,7040.82c41.92,9.6,27.33,73.34-14.59,63.74-1717.97-396.59-1450.09-986.78-2554.36-1973.34-140.09-125.16-321.35-293.78-440.59-519.45-219.29-415.03,54.57-703.69,478.57-499.43,206.08,99.28,321.64,263.25,515.22,494.34,92.56,110.5,185.38,221.29,279.31,317.12-89.53-191.22-153.65-407.46-219.58-629.83-42.33-142.77-85.42-288.1-136.61-430.86-20.1-56.06-7.05-41.1-61.22-35.71-242.51,24.13-390.76-245.44-250.69-470.08,40.34-64.7,45.71-34.23-1.39-103.01-83.07-121.29-171.56-237.27-264.89-360.16-133.62-175.93-265.95-349.18-380.09-533.69-22.45-36.29-14.34-28.52-51.71-10.42-107.23,51.94-188.65-12.5-239.94-109.39-79.14-149.49-79.97-377.25-.86-526.71,39.76-75.1,96.91-121.61,162.02-121.88,80.56-.33,135.71,62.17,167.06,130.34,14.89,32.38,3.67,25.44,38.28,17.63,9.62-2.17,19.42-3.82,29.36-4.93,89.11-9.93,189.33,23.58,275.41,115.91,69.11,74.13,216.47,236.42,379.46,418.41,125.45,140.08,257.05,288.27,365.71,412.71,150.85-196.42,397.95-267.2,576.35-84.38,41.09,42.12,18.27,36.38,65.28,11.78,203.85-106.69,386.06,32.38,503.33,196.11,29.36,41,55.68,84.91,81.24,128.8,30.15,51.77,13.66,41.41,68.07,29.45,312.28-68.65,497.53,288.43,651.35,585.02,125.41,241.82,241.39,477.18,355.11,725.32,262.1,571.94,519.81,1134.3,985.79,1442.25,35.82,23.71-.28,78.24-36.1,54.53-481.39-318.13-743.01-889.02-1009.09-1469.64-113.27-247.17-228.91-481.64-353.83-722.5-138.33-266.73-304.15-586.36-557.6-554.12-59.31,7.54-46.83,7.82-20.76,53.44,6.98,12.22,14.18,24.84,21.58,37.85,53.44,93.94,116.36,206.04,182.87,326.82,20.71,37.71-36.63,69.2-57.34,31.49-68.12-123.72-130.53-234.95-182.36-326.05-55.84-98.16-118.11-215.02-182.19-304.5-93.35-130.33-238.97-260.25-407.67-182.25-49.36,22.83-43.42,16.59-14.76,57.39,177.95,253.4,332.62,510.2,475.66,785.02,19.87,38.22-38.25,68.42-58.11,30.21-154.34-296.52-320.39-567.17-514.55-839.1-152.83-214.05-388.86-159.34-528.34,37.66,291.78,338.76,475.81,706.64,656.37,1113.56,7.28,16.47-.17,35.73-16.64,43.01s-35.73-.17-43.01-16.64c-183.68-413.94-365.54-774.53-663.97-1117.53-120.77-138.8-261.91-297.96-391.06-442.16-160.16-178.83-307.41-340.94-378.69-417.39-70.45-75.56-150.4-103.22-220.37-95.42-35.66,3.97-68.8,17.12-96.69,37.73-28.06,20.74-50.94,49.06-65.93,83.26-31.14,71.07-28.43,167.83,31.4,276.42,124.78,226.47,289.91,443.9,451.89,657.18,162.73,214.27,331.02,431.53,453.86,671.91,39.29,76.88,74.08,155.33,106.14,239.13,64.05,167.39,115.34,340.37,165.57,509.77,72.29,243.84,142.38,480.19,245.85,681.07,60.51,117.49,108.42,155.34,227.13,209.18,39.23,17.68,12.35,77.33-26.88,59.65-113.31-51.39-216.68-138.14-305.27-225.12-106.36-104.43-210.06-228.22-313.45-351.65-188.77-225.35-299.51-383.57-493.89-476.42-375.17-179.21-577.6,57.54-391.87,409.06,114.94,217.55,290.03,379.57,426.25,501.27,1093.16,976.64,828.82,1566.58,2525.43,1958.24Z"/>
</svg>
