<?xml version="1.0" encoding="UTF-8"?>
<svg id="Capa_1" data-name="Capa 1" xmlns="http://www.w3.org/2000/svg" viewBox="0 0 100 200">
  <defs>
    <style>
      .cls-1 {
        fill: #fff;
      }
    </style>
  </defs>
  <path class="cls-1" d="M50,40.64c-.31,0-.61,0-.92.02-5.5.23-10.71,2.82-14.65,6.68-3.93,3.87-6.6,9.05-6.91,14.54-.02.44-.03.86-.03,1.28,0,8.89,5.16,16.57,12.65,20.22.99.49,1.62,1.46,1.62,2.53v10.42c0,1.93,1.56,3.49,3.49,3.49h.95c.46,1.69,1.98,2.93,3.81,2.93s3.36-1.24,3.81-2.93h.95c1.93,0,3.49-1.56,3.49-3.49v-10.42c0-1.08.62-2.04,1.61-2.53,7.48-3.66,12.65-11.33,12.65-20.22,0-12.43-10.08-22.52-22.53-22.53ZM43.81,88.84h12.37v3.27h-12.37v-3.27ZM54.77,97.76h-9.53c-.79,0-1.42-.64-1.42-1.42v-2.17h12.37v2.17c0,.79-.64,1.42-1.42,1.42ZM58.96,81.52c-1.67.82-2.78,2.5-2.78,4.39v.85h-12.37v-.85c0-1.9-1.11-3.57-2.78-4.39-6.8-3.33-11.48-10.28-11.48-18.36,0-.38.01-.78.03-1.17.27-4.89,2.68-9.63,6.3-13.18,3.61-3.55,8.38-5.9,13.27-6.08.28-.01.56-.02.84-.02,5.65,0,10.76,2.29,14.46,5.99,3.7,3.7,5.99,8.81,5.99,14.46,0,8.07-4.68,15.04-11.49,18.36h.01Z"/>
  <path class="cls-1" d="M49.99,34.65h0c.57,0,1.04-.47,1.04-1.04v-10.3c0-.57-.46-1.04-1.03-1.04h0c-.57,0-1.04.47-1.04,1.04v10.3c0,.57.46,1.04,1.03,1.04Z"/>
  <path class="cls-1" d="M28.34,43.03c.4.4,1.06.4,1.46,0s.4-1.06,0-1.46l-7.26-7.29c-.4-.4-1.06-.4-1.46,0s-.4,1.06,0,1.46l7.26,7.29Z"/>
  <path class="cls-1" d="M20.42,62.17l-10.3-.02c-.57,0-1.04.47-1.04,1.04s.47,1.04,1.04,1.04l10.3.02c.57,0,1.04-.47,1.04-1.04s-.47-1.04-1.04-1.04Z"/>
  <path class="cls-1" d="M89.88,62.17l-10.3-.02c-.57,0-1.04.47-1.04,1.04s.47,1.04,1.04,1.04l10.3.02c.57,0,1.04-.47,1.04-1.04s-.47-1.04-1.04-1.04Z"/>
  <path class="cls-1" d="M71.65,43.01l7.29-7.26c.4-.4.4-1.06,0-1.46s-1.06-.4-1.46,0l-7.29,7.26c-.4.4-.4,1.06,0,1.46s1.06.4,1.46,0Z"/>
  <path class="cls-1" d="M55.52,52.64c-1.8-2.23-3.61-3.82-4.42-4.51-.31-.26-.69-.39-1.1-.39s-.79.13-1.1.39c-.82.68-2.62,2.28-4.42,4.51-2.41,2.99-4.92,7.19-4.92,11.97v.15c0,6.14,2.56,9.58,5.18,11.24,1.62,1.06,3.19,1.44,4.2,1.58v3.4c0,.58.47,1.05,1.05,1.05h.03c.57,0,1.04-.48,1.04-1.05v-3.36c1.1-.12,2.86-.53,4.62-1.73l-.06-.08.06.08c2.5-1.73,4.76-5.1,4.76-11.11v-.16c0-4.82-2.51-8.97-4.92-11.97h.02ZM51.07,73.16l4.45-4.45c.21-.21.32-.49.32-.76s-.1-.54-.32-.73h0c-.21-.21-.49-.31-.76-.31s-.54.1-.73.32h0l-2.92,2.92v-5.22l4.45-4.45c.21-.21.32-.49.32-.76s-.1-.54-.32-.73h0c-.21-.21-.49-.31-.76-.31s-.54.1-.73.32h0l-2.92,2.92v-3.62c0-.59-.47-1.06-1.06-1.06s-1.06.47-1.06,1.06v7.11l-3.04-2.93h0c-.21-.21-.49-.32-.76-.32s-.54.1-.73.32h0c-.21.21-.31.49-.31.76s.1.54.32.73h0l4.45,4.45v6.98c-.9-.17-2.2-.54-3.43-1.48h0c-1.93-1.4-3.82-3.96-3.82-9.29h0c0-4.02,2.17-7.86,4.46-10.65,1.14-1.41,2.29-2.52,3.13-3.32.31-.28.53-.49.74-.66,2.04,1.7,8.32,7.77,8.32,14.52v.11c-.04,5.61-1.94,8.17-3.87,9.52-1.26.87-2.53,1.21-3.4,1.34v-2.32l-.03-.02Z"/>
</svg>